<svg version="1.1" id="Layer_1" xmlns="http://www.w3.org/2000/svg" xmlns:xlink="http://www.w3.org/1999/xlink" x="0px" y="0px"
	 width="100%" viewBox="0 0 1278 194" enable-background="new 0 0 1278 194" xml:space="preserve">
<path fill="#FEFEFE" opacity="1.000000" stroke="none" 
	d="
M968.000000,195.000000 
	C645.333313,195.000000 323.166656,195.000000 1.000000,195.000000 
	C1.000000,130.333328 1.000000,65.666664 1.000000,1.000000 
	C427.000000,1.000000 853.000000,1.000000 1279.000000,1.000000 
	C1279.000000,65.666664 1279.000000,130.333328 1279.000000,195.000000 
	C1175.500000,195.000000 1072.000000,195.000000 968.000000,195.000000 
M28.501560,177.999695 
	C52.281731,177.999695 76.061897,177.999695 99.893120,177.999695 
	C104.279541,163.859680 108.549492,150.095154 112.974030,135.832275 
	C100.081871,135.832275 87.688065,135.832275 74.959419,135.832275 
	C82.085449,112.919937 89.069626,90.463715 95.997223,68.189407 
	C117.302071,68.189407 138.082947,68.189407 159.338211,68.189407 
	C147.967041,104.861397 136.690216,141.229126 125.361717,177.763489 
	C142.697586,177.763489 159.297012,177.763489 176.034500,177.763489 
	C187.421860,141.118103 198.754868,104.647598 210.100677,68.135910 
	C222.091064,68.135910 233.892670,68.135910 246.084488,68.135910 
	C234.725616,104.756813 223.438828,141.145279 212.055557,177.844849 
	C229.334213,177.844849 245.968521,177.844849 262.747772,177.844849 
	C278.446411,127.281029 294.113770,76.817932 309.828644,26.201889 
	C225.537552,26.201889 141.913849,26.201889 58.293869,26.201889 
	C42.602871,76.755608 26.969309,127.124275 11.178459,177.999695 
	C17.195597,177.999695 22.349257,177.999695 28.501560,177.999695 
M909.103821,164.418503 
	C909.061707,134.217087 910.060120,103.981918 905.737244,73.851501 
	C906.941650,74.913452 907.470581,76.049255 907.873596,77.228081 
	C915.552246,99.688385 923.094055,122.196411 930.927368,144.602554 
	C935.878784,158.765549 936.075867,158.775009 951.245056,157.969894 
	C952.676270,157.893921 954.792053,156.344543 955.279419,155.003052 
	C962.988647,133.782578 970.533691,112.501823 977.996826,91.192993 
	C980.308533,84.592339 982.263550,77.866730 984.381836,71.198334 
	C984.782898,71.273750 985.183960,71.349174 985.585022,71.424591 
	C980.382874,104.112083 980.765991,136.979660 981.281250,169.711426 
	C991.744873,169.711426 1001.675171,169.711426 1011.598267,169.711426 
	C1011.598267,123.026443 1011.598267,76.632690 1011.598267,30.111349 
	C999.344421,30.111349 987.382019,30.111349 975.045044,30.111349 
	C965.224731,58.619148 955.408875,87.113899 945.850525,114.861076 
	C935.907104,86.914391 925.762268,58.401512 915.768982,30.314465 
	C903.000671,30.314465 891.094543,30.314465 879.379883,30.314465 
	C879.379883,77.059029 879.379883,123.455101 879.379883,169.684036 
	C889.467957,169.684036 899.218628,169.684036 909.103821,169.684036 
	C909.103821,168.044342 909.103821,166.722321 909.103821,164.418503 
M532.146423,167.242096 
	C532.924744,168.160599 533.689392,169.864700 534.483521,169.878601 
	C544.765625,170.058273 555.051880,169.997604 564.857910,169.997604 
	C564.857910,143.617233 565.342590,117.673233 564.617493,91.763100 
	C564.330688,81.515305 560.386902,71.576164 550.942566,65.807411 
	C536.807434,57.173450 522.683533,59.323414 509.084808,67.565300 
	C506.033844,69.414429 503.283539,71.759727 500.643280,73.694542 
	C500.643280,55.780071 500.643280,37.947269 500.643280,20.059698 
	C489.909607,20.059698 479.148224,20.059698 468.276672,20.059698 
	C468.276672,70.110039 468.276672,119.964615 468.276672,169.629517 
	C479.474060,169.629517 490.355194,169.629517 501.328979,169.629517 
	C501.328979,148.434433 501.819733,127.593239 501.084656,106.795364 
	C500.795319,98.609360 504.550568,94.490417 510.690735,91.214897 
	C522.263794,85.041153 531.372559,90.254631 532.008179,103.307594 
	C532.137756,105.968422 532.138611,108.637177 532.140198,111.302315 
	C532.150818,129.628769 532.145874,147.955215 532.146423,167.242096 
M368.903046,38.325203 
	C360.812836,43.861073 354.045319,50.704979 349.310913,59.300983 
	C336.780884,82.050873 335.715820,105.930397 343.650085,130.214645 
	C349.429016,147.902191 361.376282,160.384186 378.636932,167.583572 
	C404.163788,178.230774 432.891602,172.024460 449.474945,152.092545 
	C443.973663,145.606262 438.433624,139.074265 433.132874,132.824432 
	C429.318512,135.420822 426.208893,137.994781 422.714081,139.838593 
	C406.008270,148.652328 385.433441,141.773285 378.211212,124.672729 
	C371.365631,108.463943 371.257721,91.949936 378.274811,75.714333 
	C384.575256,61.136814 398.897644,53.549252 414.051758,57.268066 
	C419.953094,58.716244 425.342102,62.252037 431.274780,64.979576 
	C436.552246,58.901131 442.215088,52.378811 448.007690,45.707039 
	C446.221375,44.030617 444.736908,42.480396 443.094910,41.120308 
	C422.592529,24.137907 394.376404,22.940733 368.903046,38.325203 
M1199.388672,166.456970 
	C1199.388550,146.625809 1199.502319,126.793602 1199.321777,106.964088 
	C1199.264526,100.662445 1198.944824,94.274559 1197.836548,88.088966 
	C1195.268555,73.757225 1186.849487,61.808186 1169.068481,60.664822 
	C1155.825562,59.813274 1145.120117,64.888474 1135.427856,73.143539 
	C1134.234985,74.159546 1133.036987,75.169525 1131.498413,76.472786 
	C1130.528931,71.586975 1129.699951,67.409668 1128.892334,63.339859 
	C1119.699463,63.339859 1110.785156,63.339859 1101.926270,63.339859 
	C1101.926270,98.955177 1101.926270,134.244873 1101.926270,169.754288 
	C1112.984985,169.754288 1123.881836,169.754288 1135.083496,169.754288 
	C1135.083496,167.880234 1135.083496,166.247452 1135.083496,164.614670 
	C1135.083496,143.950256 1135.056763,123.285751 1135.132568,102.621613 
	C1135.138794,100.917664 1135.264648,98.530090 1136.325195,97.640419 
	C1139.719971,94.792374 1143.276489,91.714149 1147.321533,90.147606 
	C1157.359375,86.260193 1163.846558,90.329575 1165.496460,100.936974 
	C1165.954102,103.879570 1165.963501,106.910637 1165.970093,109.901558 
	C1166.010132,128.232803 1165.990356,146.564178 1165.990479,164.895508 
	C1165.990479,166.502609 1165.990479,168.109711 1165.990479,169.997467 
	C1176.628906,169.997467 1186.764404,170.057785 1196.896118,169.887161 
	C1197.739868,169.872940 1198.557495,168.300217 1199.388672,166.456970 
M672.635437,77.984413 
	C668.209534,70.753937 662.008362,65.455757 653.934326,63.125317 
	C631.096985,56.533688 610.468018,62.833431 590.525879,74.515839 
	C594.498657,81.875641 598.268799,88.860016 602.132812,96.018311 
	C604.286072,94.938202 606.159363,93.960770 608.064331,93.049652 
	C615.633179,89.429512 623.436584,86.649178 631.998352,87.153450 
	C641.065857,87.687500 645.706665,92.283501 645.822998,99.775391 
	C634.085022,102.783180 622.385986,105.249947 611.048096,108.853004 
	C601.852905,111.775124 593.859985,117.196243 589.943848,126.566261 
	C584.468872,139.665955 585.908875,152.354965 595.540894,162.856720 
	C605.368469,173.571671 618.217712,174.974792 631.359436,170.199738 
	C637.939758,167.808777 643.818542,163.487183 650.242981,159.911652 
	C650.975647,162.894699 651.828186,166.365952 652.639832,169.670410 
	C661.875854,169.670410 670.776062,169.670410 679.782104,169.670410 
	C679.782104,148.709564 679.960205,128.078537 679.705505,107.452843 
	C679.581787,97.437981 678.023987,87.579094 672.635437,77.984413 
M800.856262,49.216091 
	C800.263489,53.775204 799.670715,58.334316 799.074707,62.918343 
	C793.378906,63.454159 788.147156,63.946323 782.938354,64.436325 
	C782.938354,72.832283 782.938354,80.765572 782.938354,89.202271 
	C787.712402,89.202271 792.279358,89.202271 797.065125,89.202271 
	C797.065125,94.855606 796.991028,100.005646 797.080200,105.152863 
	C797.279236,116.639824 797.180847,128.150208 797.931519,139.603333 
	C798.494751,148.195801 801.445740,156.195435 807.785339,162.469589 
	C818.660461,173.232300 843.654114,175.792557 859.066772,167.618744 
	C857.357422,160.164444 855.629761,152.630447 853.853271,144.883270 
	C852.639404,145.196533 851.866699,145.430664 851.079224,145.594040 
	C837.474792,148.416550 831.004578,143.434464 830.706177,129.583511 
	C830.494507,119.757339 830.655518,109.923126 830.651184,100.092506 
	C830.649597,96.508026 830.650940,92.923546 830.650940,88.914047 
	C839.441772,88.914047 847.517639,88.914047 855.548218,88.914047 
	C855.548218,80.052711 855.548218,71.652283 855.548218,62.891239 
	C847.132935,62.891239 839.024170,62.891239 830.436829,62.891239 
	C830.436829,51.968224 830.436829,41.406555 830.436829,30.760612 
	C821.033325,30.760612 812.123108,30.760612 802.939453,30.760612 
	C802.252991,36.764847 801.592712,42.539700 800.856262,49.216091 
M768.920532,90.136429 
	C770.163452,90.376381 771.406372,90.616325 772.904358,90.905510 
	C775.052124,81.272499 777.126099,71.970131 779.243408,62.473751 
	C758.998291,56.331501 745.870239,65.373833 735.392212,81.918373 
	C734.413574,74.951050 733.594727,69.121422 732.778442,63.309628 
	C723.568420,63.309628 714.661133,63.309628 705.904785,63.309628 
	C705.904785,98.977127 705.904785,134.347656 705.904785,169.684937 
	C717.084106,169.684937 727.970886,169.684937 739.013489,169.684937 
	C739.013489,150.573700 738.962585,131.776871 739.076599,112.981041 
	C739.091125,110.581970 739.528625,107.989586 740.513184,105.824692 
	C746.029175,93.696457 753.919556,89.273109 768.920532,90.136429 
M1041.240601,107.499893 
	C1041.240601,128.256073 1041.240601,149.012253 1041.240601,169.706833 
	C1052.776978,169.706833 1063.688477,169.706833 1074.574585,169.706833 
	C1074.574585,134.027222 1074.574585,98.647690 1074.574585,63.311676 
	C1063.363403,63.311676 1052.460083,63.311676 1041.240601,63.311676 
	C1041.240601,77.909233 1041.240601,92.204552 1041.240601,107.499893 
M1225.301880,92.499870 
	C1225.301880,118.255226 1225.301880,144.010590 1225.301880,169.711365 
	C1236.825684,169.711365 1247.737549,169.711365 1258.624268,169.711365 
	C1258.624268,134.037155 1258.624268,98.658409 1258.624268,63.308422 
	C1247.430420,63.308422 1236.531982,63.308422 1225.717041,63.308422 
	C1225.530029,63.909962 1225.353027,64.214668 1225.352051,64.519913 
	C1225.324585,73.513199 1225.314697,82.506531 1225.301880,92.499870 
M1056.665039,13.926634 
	C1045.742065,14.795318 1039.043701,21.416269 1039.229492,31.161087 
	C1039.414062,40.851070 1046.378052,47.632526 1056.560425,48.037918 
	C1068.020508,48.494171 1075.472168,42.687721 1076.561401,32.452953 
	C1077.700806,21.746349 1070.096558,14.316328 1056.665039,13.926634 
M1249.200073,14.929227 
	C1248.404785,14.686838 1247.624512,14.363231 1246.812134,14.214331 
	C1235.775757,12.191507 1226.216553,17.190409 1223.984985,26.127396 
	C1221.632324,35.549454 1226.008423,44.087040 1234.675049,46.983818 
	C1245.010864,50.438488 1255.770874,46.442474 1259.342529,37.822746 
	C1263.140259,28.657532 1259.529053,19.899500 1249.200073,14.929227 
z"/>
<path fill="#010101" opacity="1.000000" stroke="none" 
	d="
M28.002237,177.999695 
	C22.349257,177.999695 17.195597,177.999695 11.178459,177.999695 
	C26.969309,127.124275 42.602871,76.755608 58.293869,26.201889 
	C141.913849,26.201889 225.537552,26.201889 309.828644,26.201889 
	C294.113770,76.817932 278.446411,127.281029 262.747772,177.844849 
	C245.968521,177.844849 229.334213,177.844849 212.055557,177.844849 
	C223.438828,141.145279 234.725616,104.756813 246.084488,68.135910 
	C233.892670,68.135910 222.091064,68.135910 210.100677,68.135910 
	C198.754868,104.647598 187.421860,141.118103 176.034500,177.763489 
	C159.297012,177.763489 142.697586,177.763489 125.361717,177.763489 
	C136.690216,141.229126 147.967041,104.861397 159.338211,68.189407 
	C138.082947,68.189407 117.302071,68.189407 95.997223,68.189407 
	C89.069626,90.463715 82.085449,112.919937 74.959419,135.832275 
	C87.688065,135.832275 100.081871,135.832275 112.974030,135.832275 
	C108.549492,150.095154 104.279541,163.859680 99.893120,177.999695 
	C76.061897,177.999695 52.281731,177.999695 28.002237,177.999695 
z"/>
<path fill="#020202" opacity="1.000000" stroke="none" 
	d="
M909.103821,164.909393 
	C909.103821,166.722321 909.103821,168.044342 909.103821,169.684036 
	C899.218628,169.684036 889.467957,169.684036 879.379883,169.684036 
	C879.379883,123.455101 879.379883,77.059029 879.379883,30.314465 
	C891.094543,30.314465 903.000671,30.314465 915.768982,30.314465 
	C925.762268,58.401512 935.907104,86.914391 945.850525,114.861076 
	C955.408875,87.113899 965.224731,58.619148 975.045044,30.111349 
	C987.382019,30.111349 999.344421,30.111349 1011.598267,30.111349 
	C1011.598267,76.632690 1011.598267,123.026443 1011.598267,169.711426 
	C1001.675171,169.711426 991.744873,169.711426 981.281250,169.711426 
	C980.765991,136.979660 980.382874,104.112083 985.585022,71.424591 
	C985.183960,71.349174 984.782898,71.273750 984.381836,71.198334 
	C982.263550,77.866730 980.308533,84.592339 977.996826,91.192993 
	C970.533691,112.501823 962.988647,133.782578 955.279419,155.003052 
	C954.792053,156.344543 952.676270,157.893921 951.245056,157.969894 
	C936.075867,158.775009 935.878784,158.765549 930.927368,144.602554 
	C923.094055,122.196411 915.552246,99.688385 907.873596,77.228081 
	C907.470581,76.049255 906.941650,74.913452 905.737244,73.851501 
	C910.060120,103.981918 909.061707,134.217087 909.103821,164.909393 
z"/>
<path fill="#010101" opacity="1.000000" stroke="none" 
	d="
M532.146179,166.761887 
	C532.145874,147.955215 532.150818,129.628769 532.140198,111.302315 
	C532.138611,108.637177 532.137756,105.968422 532.008179,103.307594 
	C531.372559,90.254631 522.263794,85.041153 510.690735,91.214897 
	C504.550568,94.490417 500.795319,98.609360 501.084656,106.795364 
	C501.819733,127.593239 501.328979,148.434433 501.328979,169.629517 
	C490.355194,169.629517 479.474060,169.629517 468.276672,169.629517 
	C468.276672,119.964615 468.276672,70.110039 468.276672,20.059698 
	C479.148224,20.059698 489.909607,20.059698 500.643280,20.059698 
	C500.643280,37.947269 500.643280,55.780071 500.643280,73.694542 
	C503.283539,71.759727 506.033844,69.414429 509.084808,67.565300 
	C522.683533,59.323414 536.807434,57.173450 550.942566,65.807411 
	C560.386902,71.576164 564.330688,81.515305 564.617493,91.763100 
	C565.342590,117.673233 564.857910,143.617233 564.857910,169.997604 
	C555.051880,169.997604 544.765625,170.058273 534.483521,169.878601 
	C533.689392,169.864700 532.924744,168.160599 532.146179,166.761887 
z"/>
<path fill="#020202" opacity="1.000000" stroke="none" 
	d="
M369.219025,38.145725 
	C394.376404,22.940733 422.592529,24.137907 443.094910,41.120308 
	C444.736908,42.480396 446.221375,44.030617 448.007690,45.707039 
	C442.215088,52.378811 436.552246,58.901131 431.274780,64.979576 
	C425.342102,62.252037 419.953094,58.716244 414.051758,57.268066 
	C398.897644,53.549252 384.575256,61.136814 378.274811,75.714333 
	C371.257721,91.949936 371.365631,108.463943 378.211212,124.672729 
	C385.433441,141.773285 406.008270,148.652328 422.714081,139.838593 
	C426.208893,137.994781 429.318512,135.420822 433.132874,132.824432 
	C438.433624,139.074265 443.973663,145.606262 449.474945,152.092545 
	C432.891602,172.024460 404.163788,178.230774 378.636932,167.583572 
	C361.376282,160.384186 349.429016,147.902191 343.650085,130.214645 
	C335.715820,105.930397 336.780884,82.050873 349.310913,59.300983 
	C354.045319,50.704979 360.812836,43.861073 369.219025,38.145725 
z"/>
<path fill="#010101" opacity="1.000000" stroke="none" 
	d="
M1199.387939,166.954285 
	C1198.557495,168.300217 1197.739868,169.872940 1196.896118,169.887161 
	C1186.764404,170.057785 1176.628906,169.997467 1165.990479,169.997467 
	C1165.990479,168.109711 1165.990479,166.502609 1165.990479,164.895508 
	C1165.990356,146.564178 1166.010132,128.232803 1165.970093,109.901558 
	C1165.963501,106.910637 1165.954102,103.879570 1165.496460,100.936974 
	C1163.846558,90.329575 1157.359375,86.260193 1147.321533,90.147606 
	C1143.276489,91.714149 1139.719971,94.792374 1136.325195,97.640419 
	C1135.264648,98.530090 1135.138794,100.917664 1135.132568,102.621613 
	C1135.056763,123.285751 1135.083496,143.950256 1135.083496,164.614670 
	C1135.083496,166.247452 1135.083496,167.880234 1135.083496,169.754288 
	C1123.881836,169.754288 1112.984985,169.754288 1101.926270,169.754288 
	C1101.926270,134.244873 1101.926270,98.955177 1101.926270,63.339859 
	C1110.785156,63.339859 1119.699463,63.339859 1128.892334,63.339859 
	C1129.699951,67.409668 1130.528931,71.586975 1131.498413,76.472786 
	C1133.036987,75.169525 1134.234985,74.159546 1135.427856,73.143539 
	C1145.120117,64.888474 1155.825562,59.813274 1169.068481,60.664822 
	C1186.849487,61.808186 1195.268555,73.757225 1197.836548,88.088966 
	C1198.944824,94.274559 1199.264526,100.662445 1199.321777,106.964088 
	C1199.502319,126.793602 1199.388550,146.625809 1199.387939,166.954285 
z"/>
<path fill="#020202" opacity="1.000000" stroke="none" 
	d="
M672.833679,78.294777 
	C678.023987,87.579094 679.581787,97.437981 679.705505,107.452843 
	C679.960205,128.078537 679.782104,148.709564 679.782104,169.670410 
	C670.776062,169.670410 661.875854,169.670410 652.639832,169.670410 
	C651.828186,166.365952 650.975647,162.894699 650.242981,159.911652 
	C643.818542,163.487183 637.939758,167.808777 631.359436,170.199738 
	C618.217712,174.974792 605.368469,173.571671 595.540894,162.856720 
	C585.908875,152.354965 584.468872,139.665955 589.943848,126.566261 
	C593.859985,117.196243 601.852905,111.775124 611.048096,108.853004 
	C622.385986,105.249947 634.085022,102.783180 645.822998,99.775391 
	C645.706665,92.283501 641.065857,87.687500 631.998352,87.153450 
	C623.436584,86.649178 615.633179,89.429512 608.064331,93.049652 
	C606.159363,93.960770 604.286072,94.938202 602.132812,96.018311 
	C598.268799,88.860016 594.498657,81.875641 590.525879,74.515839 
	C610.468018,62.833431 631.096985,56.533688 653.934326,63.125317 
	C662.008362,65.455757 668.209534,70.753937 672.833679,78.294777 
M624.934204,127.338432 
	C624.276184,127.846489 623.597839,128.330399 622.963562,128.866547 
	C619.125061,132.111313 617.816895,136.284744 619.394043,140.955505 
	C620.893677,145.396515 624.983704,146.404053 629.087036,146.659790 
	C635.104370,147.034851 640.102051,144.605331 644.191406,140.298050 
	C645.051331,139.392349 646.108582,138.182693 646.151917,137.076889 
	C646.357666,131.833054 646.243835,126.576683 646.243835,120.107651 
	C638.710327,122.617790 632.151855,124.803024 624.934204,127.338432 
z"/>
<path fill="#030303" opacity="1.000000" stroke="none" 
	d="
M800.894348,48.765320 
	C801.592712,42.539700 802.252991,36.764847 802.939453,30.760612 
	C812.123108,30.760612 821.033325,30.760612 830.436829,30.760612 
	C830.436829,41.406555 830.436829,51.968224 830.436829,62.891239 
	C839.024170,62.891239 847.132935,62.891239 855.548218,62.891239 
	C855.548218,71.652283 855.548218,80.052711 855.548218,88.914047 
	C847.517639,88.914047 839.441772,88.914047 830.650940,88.914047 
	C830.650940,92.923546 830.649597,96.508026 830.651184,100.092506 
	C830.655518,109.923126 830.494507,119.757339 830.706177,129.583511 
	C831.004578,143.434464 837.474792,148.416550 851.079224,145.594040 
	C851.866699,145.430664 852.639404,145.196533 853.853271,144.883270 
	C855.629761,152.630447 857.357422,160.164444 859.066772,167.618744 
	C843.654114,175.792557 818.660461,173.232300 807.785339,162.469589 
	C801.445740,156.195435 798.494751,148.195801 797.931519,139.603333 
	C797.180847,128.150208 797.279236,116.639824 797.080200,105.152863 
	C796.991028,100.005646 797.065125,94.855606 797.065125,89.202271 
	C792.279358,89.202271 787.712402,89.202271 782.938354,89.202271 
	C782.938354,80.765572 782.938354,72.832283 782.938354,64.436325 
	C788.147156,63.946323 793.378906,63.454159 799.074707,62.918343 
	C799.670715,58.334316 800.263489,53.775204 800.894348,48.765320 
z"/>
<path fill="#010101" opacity="1.000000" stroke="none" 
	d="
M768.478088,90.089554 
	C753.919556,89.273109 746.029175,93.696457 740.513184,105.824692 
	C739.528625,107.989586 739.091125,110.581970 739.076599,112.981041 
	C738.962585,131.776871 739.013489,150.573700 739.013489,169.684937 
	C727.970886,169.684937 717.084106,169.684937 705.904785,169.684937 
	C705.904785,134.347656 705.904785,98.977127 705.904785,63.309628 
	C714.661133,63.309628 723.568420,63.309628 732.778442,63.309628 
	C733.594727,69.121422 734.413574,74.951050 735.392212,81.918373 
	C745.870239,65.373833 758.998291,56.331501 779.243408,62.473751 
	C777.126099,71.970131 775.052124,81.272499 772.904358,90.905510 
	C771.406372,90.616325 770.163452,90.376381 768.478088,90.089554 
z"/>
<path fill="#040404" opacity="1.000000" stroke="none" 
	d="
M1041.240601,106.999886 
	C1041.240601,92.204552 1041.240601,77.909233 1041.240601,63.311676 
	C1052.460083,63.311676 1063.363403,63.311676 1074.574585,63.311676 
	C1074.574585,98.647690 1074.574585,134.027222 1074.574585,169.706833 
	C1063.688477,169.706833 1052.776978,169.706833 1041.240601,169.706833 
	C1041.240601,149.012253 1041.240601,128.256073 1041.240601,106.999886 
z"/>
<path fill="#040404" opacity="1.000000" stroke="none" 
	d="
M1225.301880,91.999863 
	C1225.314697,82.506531 1225.324585,73.513199 1225.352051,64.519913 
	C1225.353027,64.214668 1225.530029,63.909962 1225.717041,63.308422 
	C1236.531982,63.308422 1247.430420,63.308422 1258.624268,63.308422 
	C1258.624268,98.658409 1258.624268,134.037155 1258.624268,169.711365 
	C1247.737549,169.711365 1236.825684,169.711365 1225.301880,169.711365 
	C1225.301880,144.010590 1225.301880,118.255226 1225.301880,91.999863 
z"/>
<path fill="#030303" opacity="1.000000" stroke="none" 
	d="
M1057.110474,13.904715 
	C1070.096558,14.316328 1077.700806,21.746349 1076.561401,32.452953 
	C1075.472168,42.687721 1068.020508,48.494171 1056.560425,48.037918 
	C1046.378052,47.632526 1039.414062,40.851070 1039.229492,31.161087 
	C1039.043701,21.416269 1045.742065,14.795318 1057.110474,13.904715 
z"/>
<path fill="#040404" opacity="1.000000" stroke="none" 
	d="
M1249.591797,15.027147 
	C1259.529053,19.899500 1263.140259,28.657532 1259.342529,37.822746 
	C1255.770874,46.442474 1245.010864,50.438488 1234.675049,46.983818 
	C1226.008423,44.087040 1221.632324,35.549454 1223.984985,26.127396 
	C1226.216553,17.190409 1235.775757,12.191507 1246.812134,14.214331 
	C1247.624512,14.363231 1248.404785,14.686838 1249.591797,15.027147 
z"/>
<path fill="#FBFBFB" opacity="1.000000" stroke="none" 
	d="
M625.263794,127.163345 
	C632.151855,124.803024 638.710327,122.617790 646.243835,120.107651 
	C646.243835,126.576683 646.357666,131.833054 646.151917,137.076889 
	C646.108582,138.182693 645.051331,139.392349 644.191406,140.298050 
	C640.102051,144.605331 635.104370,147.034851 629.087036,146.659790 
	C624.983704,146.404053 620.893677,145.396515 619.394043,140.955505 
	C617.816895,136.284744 619.125061,132.111313 622.963562,128.866547 
	C623.597839,128.330399 624.276184,127.846489 625.263794,127.163345 
z"/>
</svg>